<?xml version="1.0" encoding="UTF-8"?>
<svg xmlns="http://www.w3.org/2000/svg" width="640" height="120" viewBox="0 0 640 120" role="img" aria-label="Pedestrian Pursuit brand mark">
<!-- Repository-authored original artwork for Pedestrian Pursuit VXP-3. Internal art direction: KINETIC SOLE. Not a third-party trade dress. -->
<rect width="100%" height="100%" fill="#0B1220"/>

  <g fill="none" stroke="#F4F7FB" stroke-width="6" stroke-linecap="round" stroke-linejoin="round">
    <path d="M28 88 V32 L52 68 L76 32 V88"/>
    <path d="M104 88 V32 H148"/>
    <path d="M176 32 H220 M198 32 V88"/>
    <path d="M248 88 V32 H292 V52 H256"/>
    <path d="M320 32 H364 M342 32 V88"/>
    <path d="M392 32 H436 M392 60 H424 M392 88 H436"/>
    <path d="M464 32 H508 M464 88 H508 M464 32 V88"/>
    <path d="M536 32 H580 M536 60 H568 M536 88 H580"/>
  </g>
  <g fill="none" stroke="#FF6A3D" stroke-width="5" stroke-linecap="round">
    <path d="M28 104 H248"/>
    <path d="M268 104 H580"/>
  </g>
  <text x="320" y="24" text-anchor="middle" fill="#9AA8BC" font-family="ui-sans-serif, system-ui, sans-serif" font-size="14" letter-spacing="4">PEDESTRIAN PURSUIT</text>

</svg>
